<svg xmlns="http://www.w3.org/2000/svg" viewBox="-15 -15 500 500" height="500" width="500" id="Camera-1--Streamline-Ultimate.svg"><path fill="none" stroke="currentcolor" strokeLinecap="round" strokeLinejoin="round" d="M279.0625 352.5c56.781875 0 102.8125 -46.03062499999999 102.8125 -102.8125 0 -56.78167916666666 -46.03062499999999 -102.8125 -102.8125 -102.8125S176.25 192.9058208333333 176.25 249.68749999999997C176.25 306.46937499999996 222.280625 352.5 279.0625 352.5Z" strokeWidth="30" /><path fill="none" stroke="currentcolor" strokeLinecap="round" strokeLinejoin="round" d="m381.875 117.5 -21.247916666666665 -42.51541666666666c-2.4400833333333334 -4.8797749999999995 -6.19225 -8.983266666666667 -10.833499999999999 -11.850854166666664 -4.643208333333333 -2.8673916666666663 -9.991416666666666 -4.385295833333333 -15.447333333333331 -4.383729166666666h-110.5675c-5.455916666666667 -0.0015666666666666667 -10.804124999999999 1.5163375 -15.447333333333331 4.383729166666666 -4.641249999999999 2.8675875 -8.393416666666665 6.971079166666667 -10.833499999999999 11.850854166666664L176.25 117.5H44.0625c-7.790641666666667 0 -15.262466666666667 3.09495 -20.771258333333332 8.603741666666666C17.782352083333333 131.61253333333335 14.6875 139.0843583333333 14.6875 146.875v235c0 7.7902499999999995 3.0948520833333335 15.26325 8.603741666666666 20.772041666666667 5.508791666666666 5.508791666666666 12.980616666666666 8.602958333333333 20.771258333333332 8.602958333333333h381.875c7.7902499999999995 0 15.26325 -3.0941666666666667 20.772041666666667 -8.602958333333333s8.602958333333333 -12.981791666666666 8.602958333333333 -20.772041666666667v-235c0 -7.790641666666667 -3.0941666666666667 -15.262466666666667 -8.602958333333333 -20.771258333333332C441.20074999999997 120.59494999999998 433.72774999999996 117.5 425.9375 117.5H381.875Z" strokeWidth="30" /><path fill="none" stroke="currentcolor" d="M80.78125 190.9375c-4.055904166666666 0 -7.34375 -3.2878458333333334 -7.34375 -7.34375S76.72534583333332 176.25 80.78125 176.25" strokeWidth="30" /><path fill="none" stroke="currentcolor" d="M80.78125 190.9375c4.055904166666666 0 7.34375 -3.2878458333333334 7.34375 -7.34375S84.83715416666666 176.25 80.78125 176.25" strokeWidth="30" /><path fill="none" stroke="currentcolor" strokeLinecap="round" strokeLinejoin="round" d="M102.8125 117.5V88.125" strokeWidth="30" /></svg>
