<svg viewBox="0 0 24 24" xmlns="http://www.w3.org/2000/svg" strokeWidth="1.5" height="48" width="48"><path d="M9.767,9.662C4.624,9.248.75,7.43.75,5.251.75,2.765,5.787.751,12,.751s11.25,2.014,11.25,4.5c0,1.181-1.138,2.256-3,3.059" fill="none" stroke="currentColor" strokeLinecap="round" strokeLinejoin="round"></path><path d="M23.25 11.251L23.25 5.251" fill="none" stroke="currentColor" strokeLinecap="round" strokeLinejoin="round"></path><path d="M.75,5.251v6c0,1.85,2.792,3.439,6.782,4.131" fill="none" stroke="currentColor" strokeLinecap="round" strokeLinejoin="round"></path><path d="M.75,11.251v6c0,2.179,3.874,4,9.017,4.411" fill="none" stroke="currentColor" strokeLinecap="round" strokeLinejoin="round"></path><path d="M10.500 15.751 A5.250 5.250 0 1 0 21.000 15.751 A5.250 5.250 0 1 0 10.500 15.751 Z" fill="none" stroke="currentColor" strokeLinecap="round" strokeLinejoin="round"></path><path d="M23.25 23.251L19.462 19.463" fill="none" stroke="currentColor" strokeLinecap="round" strokeLinejoin="round"></path></svg>
