<svg xmlns="http://www.w3.org/2000/svg" viewBox="0 0 24 24" id="Newspaper--Streamline-Ultimate.svg"><defs></defs><title>newspaper</title><path d="M2.25 0.75h19.5s1.5 0 1.5 1.5v19.5s0 1.5 -1.5 1.5H2.25s-1.5 0 -1.5 -1.5V2.25s0 -1.5 1.5 -1.5" fill="none" stroke="currentcolor" strokeLinecap="round" strokeLinejoin="round" strokeWidth="1.5"></path><path d="m13.5 13.5 6 0" fill="none" stroke="currentcolor" strokeLinecap="round" strokeLinejoin="round" strokeWidth="1.5"></path><path d="m13.5 16.5 6 0" fill="none" stroke="currentcolor" strokeLinecap="round" strokeLinejoin="round" strokeWidth="1.5"></path><path d="m13.5 19.5 3.75 0" fill="none" stroke="currentcolor" strokeLinecap="round" strokeLinejoin="round" strokeWidth="1.5"></path><path d="m3.75 13.5 6 0" fill="none" stroke="currentcolor" strokeLinecap="round" strokeLinejoin="round" strokeWidth="1.5"></path><path d="m3.75 16.5 6 0" fill="none" stroke="currentcolor" strokeLinecap="round" strokeLinejoin="round" strokeWidth="1.5"></path><path d="m3.75 19.5 3.75 0" fill="none" stroke="currentcolor" strokeLinecap="round" strokeLinejoin="round" strokeWidth="1.5"></path><path d="M4.5 3.75h15s0.75 0 0.75 0.75V9s0 0.75 -0.75 0.75h-15s-0.75 0 -0.75 -0.75V4.5s0 -0.75 0.75 -0.75" fill="none" stroke="currentcolor" strokeLinecap="round" strokeLinejoin="round" strokeWidth="1.5"></path></svg>
