<svg xmlns="http://www.w3.org/2000/svg" fill="none" viewBox="-0.75 -0.75 48 48" height="48" width="48"><path stroke="currentColor" stroke-linecap="round" stroke-linejoin="round" d="M24.4283875 44.1815875c-0.7538812500000001 0.29585625 -1.5937875 0.29585625 -2.3571625 0C9.980062499999999 39.51511875 2.001999375 27.891475 1.9829149999999998 14.922411875V5.369723125c0 -1.803638125 1.4696325 -3.2732900000000003 3.2732900000000003 -3.2732900000000003H41.24336875c1.8036187499999998 0 3.2732125 1.469651875 3.2732125 3.2732900000000003v9.55268875c-0.00949375 12.959569375000001 -7.997031250000001 24.583019375 -20.08819375 29.249681875v0.00949375Z" stroke-width="3.5"></path><path stroke="currentColor" stroke-linecap="round" stroke-linejoin="round" d="M23.95466875 34.441c-0.4506625 0.17069375 -0.9526687500000001 0.17069375 -1.40895 0 -7.2280375 -2.6919625 -11.997251875 -9.39668125 -12.00866375 -16.87775625V12.052935625c0 -1.040418125 0.87854 -1.888151875 1.956739375 -1.888151875H34.0066125c1.07821875 0 1.956875 0.84773375 1.956875 1.888151875V17.563243749999998c-0.0058125 7.47545625 -4.7807812499999995 14.18036875 -12.00881875 16.8721375v0.00561875Z" stroke-width="3.5"></path></svg>
