<svg viewBox="0 0 24 24" xmlns="http://www.w3.org/2000/svg" stroke-width="1.5" height="48" width="48"><path d="M18.5,22.09a1.544,1.544,0,0,1-1.513,1.16H7.018A1.545,1.545,0,0,1,5.5,22.09L.791,2.59a1.459,1.459,0,0,1,.3-1.273A1.577,1.577,0,0,1,2.3.75H21.7a1.574,1.574,0,0,1,1.217.567,1.463,1.463,0,0,1,.3,1.273Z" fill="none" stroke="currentColor" stroke-linecap="round" stroke-linejoin="round"></path><path d="M7.339 0.75L9.669 23.25" fill="none" stroke="currentColor" stroke-linecap="round" stroke-linejoin="round"></path><path d="M16.662 0.75L14.331 23.25" fill="none" stroke="currentColor" stroke-linecap="round" stroke-linejoin="round"></path><path d="M1.796 6.75L22.204 6.75" fill="none" stroke="currentColor" stroke-linecap="round" stroke-linejoin="round"></path><path d="M3.247 12.75L20.754 12.75" fill="none" stroke="currentColor" stroke-linecap="round" stroke-linejoin="round"></path><path d="M4.697 18.75L19.304 18.75" fill="none" stroke="currentColor" stroke-linecap="round" stroke-linejoin="round"></path></svg>