<svg viewBox="-0.5 -0.5 24 24" xmlns="http://www.w3.org/2000/svg"><path d="M18.435458333333333 3.090625a1.4375 1.4375 0 0 0 -1.15 -0.575h-11.5a1.4375 1.4375 0 0 0 -1.15 0.575L1.4375 7.356166666666667a1.4375 1.4375 0 0 0 0.046000000000000006 1.7825000000000002l8.948916666666666 10.829166666666667a1.4375 1.4375 0 0 0 2.2041666666666666 0l8.948916666666666 -10.829166666666667a1.4375 1.4375 0 0 0 0.046000000000000006 -1.7825000000000002Z" fill="none" stroke="currentColor" strokeLinecap="round" strokeLinejoin="round" strokeWidth="1"></path><path d="m5.126125 2.6756666666666664 6.4093333333333335 17.808708333333332" fill="none" stroke="currentColor" strokeLinecap="round" strokeLinejoin="round" strokeWidth="1"></path><path d="m17.943833333333334 2.6756666666666664 -6.408375 17.808708333333332" fill="none" stroke="currentColor" strokeLinecap="round" strokeLinejoin="round" strokeWidth="1"></path><path d="m1.1480833333333333 8.265625 20.76995833333333 0" fill="none" stroke="currentColor" strokeLinecap="round" strokeLinejoin="round" strokeWidth="1"></path><path d="m7.222958333333334 8.265625 4.3125 -5.75 4.3125 5.75" fill="none" stroke="currentColor" strokeLinecap="round" strokeLinejoin="round" strokeWidth="1"></path></svg>
