<svg xmlns="http://www.w3.org/2000/svg" fill="none" viewBox="-1 -1 24 24"><path stroke="currentColor" stroke-linecap="round" stroke-linejoin="round" d="M13.75 17.1875h-3.4375v3.4375" stroke-width="2"></path><path stroke="currentColor" stroke-linecap="round" stroke-linejoin="round" d="M20.778083333333335 17.859416666666668c-0.3641 1.0639750000000001 -1.0692000000000002 1.9781666666666664 -2.00585 2.6004916666666666 -0.93665 0.6224166666666667 -2.0525083333333334 0.918225 -3.1745083333333333 0.8416833333333333 -1.1219999999999999 -0.07654166666666667 -2.18735 -0.5213083333333333 -3.0307749999999998 -1.2651833333333333 -0.8433333333333334 -0.743875 -1.4177166666666665 -1.7453333333333332 -1.6338666666666666 -2.848908333333333" stroke-width="2"></path><path stroke="currentColor" stroke-linecap="round" stroke-linejoin="round" d="M17.875 14.4375h3.4375V11" stroke-width="2"></path><path stroke="currentColor" stroke-linecap="round" stroke-linejoin="round" d="M10.846916666666667 13.765674999999998c0.3641 -1.0640666666666667 1.0692000000000002 -1.9781666666666664 2.00585 -2.6005833333333332 0.93665 -0.6223249999999999 2.0525083333333334 -0.918225 3.1745083333333333 -0.8415916666666666 1.1219999999999999 0.07654166666666667 2.18735 0.5212166666666667 3.0307749999999998 1.2650916666666667 0.843425 0.743875 1.4177166666666665 1.7453333333333332 1.6338666666666666 2.8489999999999998" stroke-width="2"></path><path stroke="currentColor" stroke-linecap="round" stroke-linejoin="round" d="M7.5625 18.5625h-5.5c-0.3646683333333333 0 -0.7144133333333333 -0.14483333333333334 -0.9722716666666665 -0.40269166666666667C0.8323654166666666 17.90195 0.6875 17.55215 0.6875 17.1875V2.0625c0 -0.3646683333333333 0.14486541666666666 -0.7144133333333333 0.4027283333333333 -0.9722716666666665C1.3480866666666667 0.8323654166666666 1.6978316666666666 0.6875 2.0625 0.6875h9.74325c0.364375 0.00007791666666666667 0.7139 0.14481683333333334 0.9716666666666667 0.40241666666666664l2.6326666666666663 2.6326666666666663c0.25758333333333333 0.25776666666666664 0.402325 0.6072458333333333 0.40241666666666664 0.9716666666666667V7.5625" stroke-width="2"></path><path stroke="currentColor" d="M4.8125 5.84375c-0.1898508333333333 0 -0.34375 -0.15389916666666667 -0.34375 -0.34375s0.15389916666666667 -0.34375 0.34375 -0.34375" stroke-width="2"></path><path stroke="currentColor" d="M4.8125 5.84375c0.1898508333333333 0 0.34375 -0.15389916666666667 0.34375 -0.34375s-0.15389916666666667 -0.34375 -0.34375 -0.34375" stroke-width="2"></path><path stroke="currentColor" stroke-linecap="round" stroke-linejoin="round" d="m11.235583333333333 9.039158333333333 -0.9230833333333331 -1.47675c-0.061966666666666656 -0.09316999999999999 -0.14565833333333333 -0.16979416666666666 -0.24401666666666666 -0.22320833333333331 -0.09826666666666667 -0.053404999999999994 -0.208175 -0.08198666666666667 -0.32000833333333334 -0.08325166666666667 -0.11183333333333333 -0.0012649999999999998 -0.22238333333333332 0.024823333333333333 -0.3218416666666667 0.07600083333333332 -0.09945833333333333 0.05116833333333333 -0.18498333333333333 0.12588583333333334 -0.24896666666666667 0.21762583333333332l-1.8333333333333333 2.6134166666666667 -1.1293333333333333 -0.9047499999999999c-0.07439666666666667 -0.059675 -0.16038 -0.10313416666666667 -0.2524866666666667 -0.12775583333333332 -0.09210666666666666 -0.0246125 -0.18833833333333333 -0.02980083333333333 -0.2825533333333333 -0.015234999999999999 -0.09422416666666666 0.014575 -0.18438749999999998 0.04857416666666667 -0.2647608333333333 0.0999075 -0.0803825 0.051241666666666665 -0.14920583333333332 0.11870833333333333 -0.20211583333333333 0.19799999999999998l-1.7755833333333333 3.64925H8.25" stroke-width="2"></path></svg>